<svg xmlns="http://www.w3.org/2000/svg" width="600" height="150" viewBox="0 0 600 150">
  <g id="Group_9" data-name="Group 9" transform="translate(1075 -371)">
    <path id="Logo_01" data-name="Logo 01" d="M50.5,142V27a10,10,0,0,1,20,0V142a10,10,0,0,1-20,0ZM18,122V47a10,10,0,0,1,20,0v75a10,10,0,0,1-20,0Zm-32-17.5v-40a10,10,0,0,1,10-10,10,10,0,0,1,10,10v40a10,10,0,0,1-10,10A10,10,0,0,1-14,104.5Zm97-20a10,10,0,1,1,10,10A10,10,0,0,1,83,84.5ZM83,52V12a10,10,0,0,1,20,0V52a10,10,0,0,1-20,0Z" transform="translate(-578 369)" fill="#fff"/>
    <path id="Persian" d="M91.711,115.569a36.6,36.6,0,0,0,18.071-4.552,36.478,36.478,0,0,0,17.34,4.552h78.655q15,0,25.848-3.118t17.312-8.254a14.129,14.129,0,0,0,5.853,8.071q4.635,3.3,13.777,3.3h2.439q19.751,0,29.018-1.529t13.655-4.586c5.283-3.749,7.208-9.664,7.948-17.259a243.418,243.418,0,0,0,.234-35.268h-3.506c-13.141,0-12.866,6.694-12.866,13.862,0,3.261.388,18.977.388,18.977a41.07,41.07,0,0,1-11.582,2.078q-7.437.488-23.287.49H266.13q-7.561,0-9.876-4.524c-.652-10.434-4.654-20.51-12.009-24.79S225.9,56.6,211.265,56.6s-20.739.247-24.181.288c5.126-5.142,16.043-12.445,33.991-14.7,7.692-.968,6-3.174,6.083-7.519.069-2.726.017-5.535.017-7.418,0-1.381-.406-2.313-2.8-2.058C210.129,26.7,191.062,33.518,182.069,41,172.647,48.83,166.7,58.925,166.7,65.773q0,5.87,4.267,8.193c2.844,1.55,8.215,2.5,14.759,2.873s18.1.551,34.686.551c10.4,0,17.109,5.2,20.117,10.177q-4.27,2.691-11.948,3.729a158.723,158.723,0,0,1-20.361,1.04H136.849c-1.76-.026-.944-.009-4.972-.009,1.443-2.187,4.535-9.174-.516-22.431-3.485-9.131-12.61-13.5-20.253-13.5-7.151,0-15.728,2.774-20.454,12.76-4.609,9.734-4.189,19.578-.934,23.185-3.989,0-3.507-.061-5.3-.007H74.061q-4.389,0-6.462-2.629a10.634,10.634,0,0,1-2.073-6.786L65.6,25H60.684c-12.533,0-11.422,8.833-11.422,14.607S49,83.164,49,83.164q.486,12.84,3.475,19.871t8.535,9.782c3.7,1.834,9.313,2.752,15.49,2.752ZM320.831,146.9c15.909-7.454,21.9-13.386,27.2-20.672,6.381-8.773,6.774-11.412,6.774-45.946.065-5.755,0-5.029-.184-14.119l-3.95-.007c-11.243,0-13.881,4.071-13.881,13.2,0,33.947-.159,34.954-6.37,40.073-5.523,4.551-10.093,6.914-18.685,10.214-5.7,2.19-4,4.844-2.647,8.668,1.065,3.015,1.777,4.127,2.824,6.7C313.958,150.044,313.5,150.331,320.831,146.9Zm115.834-38.121a41.655,41.655,0,0,0,10.729-1.162,15.855,15.855,0,0,0,6.949-3.729s17.852,9.6,27.166,6.034,23.982-15.158,14.329-37.407c-4.173-9.62-11.23-15.545-20.768-15.545h0a21.392,21.392,0,0,0-14.509,5.524q-5.732,5.076-10.485,16.325a26.841,26.841,0,0,1-2.378,4.4,5.222,5.222,0,0,1-2.926,1.773,25.9,25.9,0,0,1-6.279.551h-22.84c-1.057-8.64-2.98-14.912-7.126-20.17s-9.983-8.573-16.16-8.573c-7.967,0-14.021,2.434-18.844,8.485a30.422,30.422,0,0,0-6.218,24.328c3.2,19.953,21.069,19.726,28.681,18.833a.288.288,0,0,1,.175.358c-.914,5.366-2.45,8.493-5.032,10.622-5.523,4.551-10.093,6.914-18.685,10.214-5.7,2.19-4,4.844-2.647,8.668,1.065,3.015,1.777,4.127,2.824,6.7,2.044,5.03,1.585,5.317,8.918,1.881,15.909-7.454,21.9-13.386,27.2-20.672,3.047-4.19,4.73-9.738,5.655-17.631,9.838-.158,22.271.188,22.271.188Zm-186.9,22.884h35.482a10.176,10.176,0,0,1,10.16,10.191v6.793A1.357,1.357,0,0,1,294.052,150H258.569a10.175,10.175,0,0,1-10.16-10.192v-6.792a1.357,1.357,0,0,1,1.356-1.359ZM345.993,34.9a10.867,10.867,0,1,1-10.838,10.869A10.867,10.867,0,0,1,345.993,34.9ZM110.292,25A10.867,10.867,0,1,1,99.46,35.867,10.867,10.867,0,0,1,110.292,25Z" transform="translate(-1124 366)" fill="#fff" fill-rule="evenodd"/>
  </g>
</svg>
